<?xml version="1.0" encoding="UTF-8"?>
<svg xmlns="http://www.w3.org/2000/svg" viewBox="0 0 100 100" width="100" height="100">
  <!-- 背景圆形 -->
  <circle cx="50" cy="50" r="45" fill="#2C3E50"/>
  
  <!-- 字母B -->
  <path d="M35,25 H65 C72,25 77,30 77,37 C77,43 73,47 68,48 C74,49 78,54 78,61 C78,69 72,75 64,75 H35 Z M45,35 V45 H60 C63,45 65,43 65,40 C65,37 63,35 60,35 Z M45,55 V65 H60 C63,65 66,63 66,60 C66,57 63,55 60,55 Z" fill="#F1C40F"/>

  <!-- 建筑元素，3D立方体 -->
  <path d="M30,70 L20,60 L20,40 L30,30 L30,70 Z" fill="#E74C3C"/>
  <path d="M30,30 L20,40 L40,40 L50,30 Z" fill="#F39C12"/>
  <path d="M30,70 L50,70 L50,30 L30,30 Z" fill="#BDC3C7" fill-opacity="0.3"/>
</svg> 